HIERARCHY
ROOT Hips
{
	OFFSET 13.361450 91.980232 11.169650
	CHANNELS 6 Xposition Yposition Zposition Zrotation Yrotation Xrotation 
	JOINT LeftUpLeg
	{
		OFFSET 0.103455 1.857829 10.548506
		CHANNELS 3 Zrotation Yrotation Xrotation
		JOINT LeftLeg
		{
			OFFSET 43.499996 -0.000034 0.000000
			CHANNELS 3 Zrotation Yrotation Xrotation
			JOINT LeftFoot
			{
				OFFSET 42.372192 0.000015 -0.000006
				CHANNELS 3 Zrotation Yrotation Xrotation
				JOINT LeftToe
				{
					OFFSET 17.299999 -0.000000 -0.000002
					CHANNELS 3 Zrotation Yrotation Xrotation
					End Site
					{
						OFFSET 0.000000 0.000000 0.000000
					}
				}
			}
		}
	}
	JOINT RightUpLeg
	{
		OFFSET 0.103461 1.857828 -10.548504
		CHANNELS 3 Zrotation Yrotation Xrotation
		JOINT RightLeg
		{
			OFFSET 43.500038 -0.000027 0.000010
			CHANNELS 3 Zrotation Yrotation Xrotation
			JOINT RightFoot
			{
				OFFSET 42.372265 -0.000004 0.000015
				CHANNELS 3 Zrotation Yrotation Xrotation
				JOINT RightToe
				{
					OFFSET 17.299992 -0.000005 0.000008
					CHANNELS 3 Zrotation Yrotation Xrotation
					End Site
					{
						OFFSET 0.000000 0.000000 0.000000
					}
				}
			}
		}
	}
	JOINT Spine
	{
		OFFSET 6.901968 -2.603732 0.000000
		CHANNELS 3 Zrotation Yrotation Xrotation
		JOINT Spine1
		{
			OFFSET 12.588099 -0.000001 0.000001
			CHANNELS 3 Zrotation Yrotation Xrotation
			JOINT Spine2
			{
				OFFSET 12.343203 -0.000001 -0.000000
				CHANNELS 3 Zrotation Yrotation Xrotation
				JOINT Neck
				{
					OFFSET 25.832890 -0.000002 0.000001
					CHANNELS 3 Zrotation Yrotation Xrotation
					JOINT Head
					{
						OFFSET 11.766614 0.000006 0.000000
						CHANNELS 3 Zrotation Yrotation Xrotation
						End Site
						{
							OFFSET 0.000000 0.000000 0.000000
						}
					}
				}
				JOINT LeftShoulder
				{
					OFFSET 19.745895 -1.480368 6.000105
					CHANNELS 3 Zrotation Yrotation Xrotation
					JOINT LeftArm
					{
						OFFSET 11.284125 -0.000008 -0.000020
						CHANNELS 3 Zrotation Yrotation Xrotation
						JOINT LeftForeArm
						{
							OFFSET 33.000050 0.000002 0.000037
							CHANNELS 3 Zrotation Yrotation Xrotation
							JOINT LeftHand
							{
								OFFSET 25.200003 0.000015 -0.000001
								CHANNELS 3 Zrotation Yrotation Xrotation
								End Site
								{
									OFFSET 0.000000 0.000000 0.000000
								}
							}
						}
					}
				}
				JOINT RightShoulder
				{
					OFFSET 19.746092 -1.480371 -6.000073
					CHANNELS 3 Zrotation Yrotation Xrotation
					JOINT RightArm
					{
						OFFSET 11.284139 -0.000016 -0.000008
						CHANNELS 3 Zrotation Yrotation Xrotation
						JOINT RightForeArm
						{
							OFFSET 33.000092 0.000014 0.000002
							CHANNELS 3 Zrotation Yrotation Xrotation
							JOINT RightHand
							{
								OFFSET 25.199774 0.000137 0.000428
								CHANNELS 3 Zrotation Yrotation Xrotation
								End Site
								{
									OFFSET 0.000000 0.000000 0.000000
								}
							}
						}
					}
				}
			}
		}
	}
}
MOTION
Frames: 11
Frame Time: 0.033333
74.872627 89.961090 -554.454407 86.066688 2.720457 78.985202 153.159971 -8.645484 173.290533 -59.572206 4.194311 -6.047676 79.570795 2.218017 -7.854286 21.454555 0.003097 0.000002 175.985862 -7.565902 178.813424 -23.795618 5.023309 15.043176 91.420033 -10.523551 -2.145600 21.454557 -0.003113 -0.000019 9.732978 1.450395 0.742685 9.475869 2.834998 1.602132 9.157487 2.844758 1.584981 -6.315526 0.334186 -3.465375 -3.638655 3.916167 -4.205370 -176.520010 -75.177905 -4.949964 -0.775509 58.305145 40.583041 -25.927934 -14.363060 1.116328 15.894176 -8.084193 -0.737601 140.767931 75.004589 -38.693011 -1.759986 -55.154478 -16.774919 -56.360139 15.416002 -2.025636 8.974980 10.066949 -27.438934 
74.289574 89.529259 -551.033203 85.966742 2.690841 78.686183 151.168370 -8.154599 173.765654 -51.673328 3.769991 -4.657459 79.172056 1.389398 -7.253409 21.454558 0.003103 -0.000001 178.080367 -7.601103 178.856700 -24.400175 4.922679 14.672913 93.506096 -10.108249 -1.525208 21.454557 -0.003118 -0.000017 9.736496 1.323106 0.968639 9.485394 2.562292 2.042941 9.167171 2.574715 2.027449 -6.401865 -0.326740 -3.284790 -3.614891 4.032894 -4.272841 -175.377907 -75.243351 -6.121120 3.841414 57.226429 44.461151 -26.159751 -14.236390 1.112033 15.569652 -6.873299 1.081780 138.581014 75.298908 -40.889081 -2.087626 -54.571115 -14.799394 -59.976574 14.902655 -2.123531 8.513334 10.300099 -28.438693 
73.572159 89.063667 -547.420898 85.806437 2.669616 78.619302 150.479654 -7.880797 174.432868 -41.760743 2.576278 -3.334947 77.157669 0.204922 -7.910086 21.454550 0.003098 -0.000000 -179.312191 -7.814694 178.398271 -24.259857 4.911249 14.697978 95.286692 -9.996418 -0.923611 21.454558 -0.003107 -0.000016 9.726353 1.215759 1.138337 9.466051 2.334267 2.372781 9.147975 2.348689 2.358659 -6.737029 -0.971633 -3.116528 -3.631509 4.204987 -4.363262 -174.538080 -75.326386 -6.981939 7.668615 56.004529 47.881361 -26.852646 -14.289983 1.127052 15.274325 -5.410150 3.333432 136.686046 75.538088 -42.791975 -2.392483 -54.015407 -12.787272 -63.153118 14.259692 -2.200862 8.104778 10.146529 -29.440554 
72.781433 88.629097 -543.672119 85.845554 2.499549 78.632382 150.851080 -7.600905 174.785620 -30.286029 0.811626 -2.511114 73.166359 -1.058872 -9.417275 21.454553 0.003098 0.000001 -176.358995 -7.914708 177.646882 -23.242587 4.899471 14.939101 96.759649 -10.071852 -0.462471 21.454558 -0.003107 -0.000017 9.641424 1.070413 1.289192 9.295122 2.033765 2.660571 8.977189 2.049932 2.648246 -7.129395 -1.499793 -2.967158 -3.739749 4.441456 -4.456996 -173.925044 -75.288929 -7.610105 10.660612 54.659852 50.482584 -27.773697 -14.452537 1.153405 15.084273 -3.979184 4.451261 136.045074 75.624298 -43.433934 -2.518574 -53.435387 -11.069315 -65.785459 13.565765 -2.256696 7.796053 10.094757 -30.192639 
71.992996 88.231857 -539.829285 85.967568 2.320968 78.334811 152.052934 -7.551689 175.470688 -19.319468 -1.731660 -2.735278 69.628772 -2.161356 -12.474920 21.454550 0.003093 0.000001 -173.065041 -7.843505 176.182967 -21.496521 5.013939 15.385536 97.555326 -10.313286 0.123451 21.454560 -0.003111 -0.000018 9.528023 0.893697 1.470659 9.066098 1.669403 3.007042 8.748343 1.687655 2.996922 -7.504936 -2.030251 -2.723393 -3.935953 4.578613 -4.444265 -172.771957 -75.174701 -8.790050 12.862750 53.505390 51.582692 -28.766195 -14.552019 1.177678 14.819298 -3.082427 4.977431 135.717047 75.631470 -43.765970 -2.617470 -53.077701 -9.818420 -67.556896 13.070324 -2.293551 7.443831 10.220599 -30.578176 
71.330307 87.560997 -535.854614 85.793665 2.265520 77.590915 153.042409 -7.798194 175.128400 -13.639347 -3.205354 -2.497330 72.533091 -3.789660 -18.300944 21.454553 0.003091 0.000001 -170.220608 -7.716289 175.792117 -21.276487 4.842515 14.953917 98.453953 -9.962254 0.953615 21.454560 -0.003108 -0.000018 9.425946 0.754060 1.690493 8.860372 1.376490 3.433919 8.542795 1.397335 3.425569 -7.796288 -2.496904 -2.330661 -3.940333 4.615364 -4.234015 -171.062989 -75.039436 -10.541010 14.466394 52.698038 51.802030 -29.578725 -14.589383 1.195271 14.497343 -2.971856 4.377458 134.412946 75.608118 -45.089019 -2.700008 -53.122558 -9.133169 -68.292288 12.865345 -2.309183 7.116140 10.483075 -30.501846 
70.904953 86.989861 -532.151001 86.195191 2.204060 76.853002 152.585210 -7.323589 172.160396 -16.844044 -2.627599 -0.748274 74.472824 -5.638317 -21.156777 21.454555 0.003099 0.000001 -168.522350 -6.781597 176.398064 -22.670407 4.509794 13.901491 98.987131 -9.191162 2.433481 21.454558 -0.003108 -0.000016 9.313190 0.506981 1.842779 8.628031 0.875181 3.718259 8.310619 0.897750 3.712926 -8.072060 -3.214991 -1.913215 -3.927962 5.349839 -4.256151 -169.919930 -74.786576 -11.711903 14.790754 52.194393 51.272553 -29.825220 -14.595609 1.200373 14.254054 -3.605171 3.488659 133.457074 75.620310 -46.055043 -3.403502 -53.432225 -8.596390 -67.969200 12.932703 -2.300737 7.040919 10.720860 -30.355256 
70.568893 86.742813 -528.215271 87.404346 2.822819 75.715092 153.591857 -5.456398 168.239990 -19.774149 -1.395531 0.696210 68.111924 -4.368339 -11.065663 21.454555 0.003085 0.000000 -166.746064 -4.580003 177.238218 -24.794690 4.220901 12.661169 98.364239 -8.305746 3.745858 21.454560 -0.003105 -0.000018 9.309538 0.025469 2.007933 8.604542 -0.098372 4.012137 8.287290 -0.074030 4.012669 -8.411449 -3.364976 -1.677433 -3.981665 5.467386 -4.118382 -169.564938 -74.413408 -12.073980 13.547270 51.869693 49.799889 -29.470480 -14.529593 1.189370 14.141168 -4.410692 2.932362 133.130004 75.560914 -46.391003 -4.399576 -54.098995 -8.444090 -66.513810 13.361545 -2.271683 6.949185 10.964696 -30.007186 
70.519371 87.376099 -524.257874 89.966767 3.952645 74.273403 156.285110 -1.856710 167.063272 -19.920356 -1.288195 -0.033030 66.793335 -0.310695 -1.202549 21.454551 0.003096 -0.000001 -165.676989 -0.478697 179.184562 -27.610089 3.719222 11.056303 94.720053 -7.058552 5.067620 21.454560 -0.003106 -0.000017 9.311710 -0.779193 2.101072 8.580573 -1.711931 4.138992 8.263236 -1.686786 4.149240 -8.269806 -3.284437 -1.448686 -3.922996 5.647739 -3.904749 -168.864980 -73.794545 -12.791999 10.567260 51.733953 47.487877 -28.346725 -14.329723 1.155782 14.122649 -5.286192 3.069893 132.568958 74.963976 -47.009057 -5.258699 -54.996704 -9.065795 -63.821438 14.142048 -2.218827 7.039583 11.253255 -29.185241 
70.538544 87.749847 -520.113525 91.844174 4.708046 73.492808 157.806207 1.969803 171.117385 -21.959202 -0.591335 -3.392316 69.253965 3.021078 1.432516 21.454550 0.003097 -0.000000 -167.133431 2.987898 -177.956221 -34.509152 2.961491 9.377378 89.051692 -5.695840 5.331197 21.454555 -0.003098 -0.000017 9.198568 -1.373613 2.119209 8.334630 -2.896107 4.135273 8.016997 -2.870973 4.152668 -7.762491 -3.143026 -1.271361 -3.900799 5.884904 -3.726961 -169.198976 -73.041510 -12.447022 6.779771 51.542786 44.831238 -27.006208 -14.193791 1.123506 14.468984 -5.720895 4.068993 133.284052 74.675701 -46.310066 -6.153551 -56.110499 -10.810462 -59.812943 15.181120 -2.136331 7.375539 11.631416 -27.689855 
70.366837 88.173576 -516.214172 92.667027 5.164177 72.859404 159.531800 3.389804 173.199459 -24.073688 -1.232999 -5.178540 73.026347 4.004919 0.729455 21.454551 0.003092 -0.000001 -170.959485 5.170904 -176.303807 -44.220335 2.014423 8.444141 80.238371 -5.081475 3.773866 21.454557 -0.003109 -0.000019 9.114262 -1.669830 2.190229 8.154536 -3.489619 4.259305 7.836740 -3.463736 4.280280 -7.238342 -2.848202 -1.247842 -4.111552 5.669832 -3.552033 -170.104973 -72.215631 -11.511960 1.564410 51.655088 41.239460 -25.993183 -14.232133 1.109038 14.919235 -5.719318 5.782745 133.891980 74.837201 -45.681039 -6.939993 -57.326112 -12.951829 -55.435171 15.892462 -2.024790 8.252448 11.627753 -26.201231 
